<?xml version="1.0" encoding="UTF-8" standalone="no"?>
<!-- Created with Inkscape (http://www.inkscape.org/) -->

<svg
   xmlns:dc="http://purl.org/dc/elements/1.1/"
   xmlns:cc="http://creativecommons.org/ns#"
   xmlns:rdf="http://www.w3.org/1999/02/22-rdf-syntax-ns#"
   xmlns:svg="http://www.w3.org/2000/svg"
   xmlns="http://www.w3.org/2000/svg"
   xmlns:sodipodi="http://sodipodi.sourceforge.net/DTD/sodipodi-0.dtd"
   xmlns:inkscape="http://www.inkscape.org/namespaces/inkscape"
   width="185mm"
   height="154mm"
   id="svg27595"
   version="1.1"
   inkscape:version="0.48.4 r9939"
   sodipodi:docname="acc.svg">
  <defs
     id="defs3" />
  <sodipodi:namedview
     id="base"
     pagecolor="#ffffff"
     bordercolor="#666666"
     borderopacity="1.0"
     inkscape:pageopacity="0.0"
     inkscape:pageshadow="2"
     inkscape:zoom="2.4"
     inkscape:cx="111.72112"
     inkscape:cy="446.42248"
     inkscape:document-units="mm"
     inkscape:current-layer="layer1"
     showgrid="false"
     inkscape:window-width="1366"
     inkscape:window-height="719"
     inkscape:window-x="-4"
     inkscape:window-y="-4"
     inkscape:window-maximized="1" />
  <metadata
     id="metadata27599">
    <rdf:RDF>
      <cc:Work
         rdf:about="">
        <dc:format>image/svg+xml</dc:format>
        <dc:type
           rdf:resource="http://purl.org/dc/dcmitype/StillImage" />
        <dc:title></dc:title>
      </cc:Work>
    </rdf:RDF>
  </metadata>
  <g
     inkscape:label="Layer 1"
     inkscape:groupmode="layer"
     id="layer1">
    <path
       d="m 393.16622,155.27277 c -9.61924,0 -19.98762,3.95651 -27.78955,10.47947 -1.30744,1.09096 -2.52943,2.24174 -3.66881,3.44094 l 1.78598,-10.65893 c -4.92498,-2.06228 -9.98384,-3.26148 -15.69784,-3.26148 -9.61354,0 -19.99047,3.95651 -27.7867,10.47947 -7.60253,6.35206 -12.55884,14.8547 -14.04004,23.70201 -0.0684,0.3703 -0.11394,0.73775 -0.16521,1.11375 l -7.7478,-33.57761 h -19.41508 l -37.14388,64.74542 h 18.87102 l 6.60273,-11.2514 h 24.49388 l 2.56076,11.2514 h 18.96788 l -2.38986,-10.36269 c 0.67793,0.88018 1.42423,1.72332 2.24458,2.54368 6.05297,6.10139 14.55562,9.53378 24.08655,9.53378 5.53456,0 10.01233,-1.2818 16.20203,-3.00512 l 1.76889,-10.58202 c 0.93714,1.42138 2.0338,2.78864 3.31275,4.05336 6.05867,6.10139 14.55277,9.53378 24.0837,9.53378 5.53456,0 10.01803,-1.2818 16.19633,-3.00512 l 3.38112,-20.17562 c -4.4265,4.20432 -10.68172,6.86763 -16.48117,6.86763 -11.07195,0 -17.28159,-7.39175 -15.56112,-17.60631 1.66919,-10.04081 10.34274,-17.94528 21.22955,-17.94528 6.0843,0 11.56188,2.4924 14.41888,7.12969 l 3.36973,-20.18417 c -4.91644,-2.05943 -9.97815,-3.25863 -15.6893,-3.25863 m -119.13956,42.33092 10.79566,-20.60574 h 0.17945 l 3.80839,20.60574 h -14.7835 m 65.99875,9.53378 c -11.0691,0 -17.27874,-7.39175 -15.56682,-17.60631 1.68629,-10.04081 10.35414,-17.94528 21.24379,-17.94528 4.29263,0 8.28332,1.25047 11.25995,3.61469 -2.87409,4.42935 -4.80249,9.28312 -5.63424,14.25368 -0.86024,5.11013 -0.66654,9.89269 0.65799,14.21095 -3.6916,2.18762 -7.9358,3.47227 -11.96067,3.47227 z"
       id="path7071"
       inkscape:connector-curvature="0"
       style="stroke:#cccccc;stroke-width:8.73600000000000070;stroke-miterlimit:4;stroke-dasharray:none;fill:none" />
    <path
       d="m 425.24895,28.666387 c 5.71401,0 10.77572,1.196351 15.69785,3.261483 l -3.37827,20.178467 c -2.85131,-4.640136 -8.33174,-7.129687 -14.41034,-7.129687 -10.8925,0 -19.5632,7.89877 -21.24094,17.945277 -1.71478,10.214566 4.49771,17.606311 15.56111,17.606311 5.80516,0 12.05752,-2.65761 16.48117,-6.867629 l -3.37826,20.169925 c -6.18116,1.72901 -10.66178,3.01082 -16.19063,3.01082 -9.53948,0 -18.03358,-3.43239 -24.09225,-9.530941 -1.27896,-1.267563 -2.37276,-2.629125 -3.30991,-4.056202 l -1.77458,10.576323 c -6.184,1.72901 -10.65893,3.01082 -16.19348,3.01082 -9.53379,0 -18.03358,-3.43239 -24.08656,-9.530941 -0.82036,-0.817507 -1.5638,-1.669195 -2.24458,-2.54652 l 2.3927,10.356991 -18.96787,0 -2.55792,-11.24571 -24.49957,0 -6.60273,11.24571 -18.87387,0 37.14957,-64.742575 19.41508,0 7.7478,33.580456 c 0.0484,-0.373148 0.094,-0.746295 0.15952,-1.119443 1.4755,-8.847307 6.43466,-17.347102 14.03435,-23.696312 7.80762,-6.528662 18.1817,-10.476623 27.79809,-10.476623 5.71401,0 10.77571,1.196351 15.695,3.264331 l -1.78029,10.661773 c 1.13939,-1.207745 2.35853,-2.364219 3.65742,-3.449481 7.81047,-6.528662 18.17885,-10.476623 27.79239,-10.476623 m -119.13671,42.325218 14.79204,0 -3.81408,-20.605736 -0.17946,0 -10.7985,20.605736 m 77.96227,6.061516 c -1.32168,-4.321109 -1.51822,-9.097971 -0.65514,-14.213799 0.82605,-4.96486 2.7573,-9.824327 5.6314,-14.247981 -2.97664,-2.364219 -6.97303,-3.614691 -11.25995,-3.614691 -10.8925,0 -19.56605,7.89877 -21.2381,17.945277 -1.71192,10.214566 4.48917,17.606311 15.56112,17.606311 4.02772,0 8.26622,-1.281806 11.96067,-3.475117 z"
       id="path7073"
       inkscape:connector-curvature="0"
       style="fill:none;stroke:#ffff00;stroke-width:27.63601111999999900;stroke-linejoin:round"
       sodipodi:nodetypes="cccscsccscccscccccccccccccsccccccccccccscsc" />
    <path
       d="m 119.07836,204.80664 c 4.02487,0 8.26907,-1.28465 11.96067,-3.47227 -1.32453,-4.31826 -1.51823,-9.10082 -0.65799,-14.21095 0.83175,-4.97056 2.76015,-9.82433 5.63424,-14.25368 -2.97663,-2.36422 -6.96732,-3.61469 -11.25995,-3.61469 -10.88965,0 -19.5575,7.90447 -21.24379,17.94528 -1.71192,10.21456 4.49772,17.60631 15.56682,17.60631 z m -65.99875,-9.53378 14.7835,0 -3.80839,-20.60574 -0.17945,0 -10.79566,20.60574 m 119.13956,-42.33092 c 5.71115,0 10.77286,1.1992 15.6893,3.25863 l -3.36973,20.18417 c -2.857,-4.63729 -8.33458,-7.12969 -14.41888,-7.12969 -10.88681,0 -19.56036,7.90447 -21.22955,17.94528 -1.72047,10.21456 4.48917,17.60631 15.56112,17.60631 5.79945,0 12.05467,-2.66331 16.48117,-6.86763 l -3.38112,20.17562 c -6.1783,1.72332 -10.66177,3.00512 -16.19633,3.00512 -9.53093,0 -18.02503,-3.43239 -24.0837,-9.53378 -1.27895,-1.26472 -2.37561,-2.63198 -3.31275,-4.05336 l -1.76889,10.58202 c -6.1897,1.72332 -10.66747,3.00512 -16.20203,3.00512 -9.53093,0 -18.03358,-3.43239 -24.08655,-9.53378 -0.82035,-0.82036 -1.56665,-1.6635 -2.24458,-2.54368 l 2.38986,10.36269 -18.96788,0 -2.56076,-11.2514 -24.49388,0 -6.60273,11.2514 -18.87102,0 37.14388,-64.74542 19.41508,0 7.7478,33.57761 c 0.05127,-0.376 0.09681,-0.74345 0.16521,-1.11375 1.4812,-8.84731 6.43751,-17.34995 14.04004,-23.70201 7.79623,-6.52296 18.17316,-10.47947 27.7867,-10.47947 5.714,0 10.77286,1.1992 15.69784,3.26148 l -1.78598,10.65893 c 1.13938,-1.1992 2.36137,-2.34998 3.66881,-3.44094 7.80193,-6.52296 18.17031,-10.47947 27.78955,-10.47947"
       id="path7071-7"
       inkscape:connector-curvature="0"
       style="fill:none;stroke:#ffff00;stroke-width:8.73600006000000030;stroke-miterlimit:4;stroke-dasharray:none"
       sodipodi:nodetypes="scccscsccccccccscsccscccscccccccccccccscccc" />
    <path
       d="m 151.16679,78.197412 c 4.02772,0 8.26622,-1.28181 11.96067,-3.47512 -1.32168,-4.32111 -1.51822,-9.09797 -0.65514,-14.2138 0.82605,-4.96486 2.7573,-9.82433 5.6314,-14.24798 -2.97664,-2.36422 -6.97303,-3.61469 -11.25995,-3.61469 -10.8925,0 -19.56605,7.89877 -21.2381,17.94528 -1.71192,10.21456 4.48917,17.60631 15.56112,17.60631 z m -66.0016,-9.53664 14.79204,0 -3.81408,-20.60573 -0.17946,0 -10.7985,20.60573 M 204.3019,26.335562 c -9.61354,0 -19.98192,3.94796 -27.79239,10.47662 -1.29889,1.08526 -2.51803,2.24173 -3.65742,3.44948 l 1.78029,-10.66177 c -4.91929,-2.06798 -9.98099,-3.26433 -15.695,-3.26433 -9.61639,0 -19.99047,3.94796 -27.79809,10.47662 -7.59969,6.34921 -12.55885,14.849 -14.03435,23.69631 -0.0655,0.37315 -0.11112,0.7463 -0.15952,1.11944 l -7.7478,-33.58045 -19.41508,0 -37.14957,64.74257 18.87387,0 6.60273,-11.24571 24.49957,0 2.55792,11.24571 18.96787,0 -2.3927,-10.35699 c 0.68078,0.87733 1.42422,1.72901 2.24458,2.54652 6.05298,6.09855 14.55277,9.53094 24.08656,9.53094 5.53455,0 10.00948,-1.28181 16.19348,-3.01082 l 1.77458,-10.57632 c 0.93715,1.42708 2.03095,2.78864 3.30991,4.0562 6.05867,6.09855 14.55277,9.53094 24.09225,9.53094 5.52885,0 10.00947,-1.28181 16.19063,-3.01082 l 3.37826,-20.16992 c -4.42365,4.21002 -10.67601,6.86763 -16.48117,6.86763 -11.0634,0 -17.27589,-7.39175 -15.56111,-17.60631 1.67774,-10.04651 10.34844,-17.94528 21.24094,-17.94528 6.0786,0 11.55903,2.48955 14.41034,7.12969 l 3.37827,-20.17847 c -4.92213,-2.06513 -9.98384,-3.26148 -15.69785,-3.26148"
       id="path7073-7"
       inkscape:connector-curvature="0"
       style="fill:none;stroke:#e6e6e6;stroke-width:27.63601112;stroke-linejoin:round"
       sodipodi:nodetypes="scccscscccccccccscccccccccccccscccsccscsccc" />
  </g>
</svg>
